# xmcd CD database file
# Copyright (C) 1997 Ti Kan
# 
# Track frame offsets:
#     183
#     12565
#     25233
#     38243
#     52328
#     63695
#     76875
#     90518
#     102400
#     114708
#     126508
#     138898
#     152448
#     166890
#     181715
#     196318
#     210093
#     224003
#     235005
#     248530
#     261973
#     275900
#     290185
#     304158
# 
# Disc length: 4224 seconds
# 
# Revision: 1
# Processed by: cddbd v1.4b41PL1 Copyright (c) Steve Scherf et al.
# Submitted via: DiscPlay 4.0.3
# 
DISCID=61107e18
DTITLE=Gertrude "Ma" Rainey - The Complete Gertrude "Ma" Rainey Collection 1
DTITLE=923/28 Vol. 4 1927/28
DYEAR=1900
DGENRE=
TTITLE0=Georgia Cake Walk
TTITLE1=New Bo-Weevil Blue
TTITLE2=Moonshine Blues
TTITLE3=Ice Bag Papa
TTITLE4=Balck Cat Hoot Owl Blues
TTITLE5=Long Camp Blues
TTITLE6=Hear Me Talking To You
TTITLE7=Hustlin' Blues
TTITLE8=Prove It On Me Blues
TTITLE9=Victim Of The Blues
TTITLE10=Travelling Blues
TTITLE11=Deep Moaning Blues
TTITLE12=Daddy Goodbye Blues
TTITLE13=Sleep Talking Blues
TTITLE14=Tough Luck Blues
TTITLE15=Blame It On The Blues
TTITLE16=Sweet Rough Man
TTITLE17=Runaway Blues
TTITLE18=Screech Owl Man
TTITLE19=Black Dust Blues
TTITLE20=Leaving This Morning
TTITLE21=Black Eye Blues
TTITLE22=Ma And Pa Poorhouse Blues
TTITLE23=Big Feeling Blues
EXTD=
EXTT0=
EXTT1=
EXTT2=
EXTT3=
EXTT4=
EXTT5=
EXTT6=
EXTT7=
EXTT8=
EXTT9=
EXTT10=
EXTT11=
EXTT12=
EXTT13=
EXTT14=
EXTT15=
EXTT16=
EXTT17=
EXTT18=
EXTT19=
EXTT20=
EXTT21=
EXTT22=
EXTT23=
PLAYORDER=
